<?xml version="1.0" standalone="no"?>
<!DOCTYPE svg PUBLIC "-//W3C//DTD SVG 20010904//EN"
 "http://www.w3.org/TR/2001/REC-SVG-20010904/DTD/svg10.dtd">
<svg version="1.0" xmlns="http://www.w3.org/2000/svg"
 width="576.000000pt" height="700.000000pt" viewBox="0 0 576.000000 700.000000"
 preserveAspectRatio="xMidYMid meet">

<g transform="translate(0.000000,700.000000) scale(0.100000,-0.100000)"
fill="#000000" stroke="none">
<path d="M5 3500 c0 -1928 1 -2716 2 -1752 2 963 2 2541 0 3505 -1 963 -2 175
-2 -1753z"/>
<path d="M2420 5175 c-301 -60 -576 -259 -777 -563 -163 -246 -262 -514 -309
-837 -25 -167 -25 -495 0 -660 66 -444 233 -800 501 -1070 142 -142 314 -252
474 -301 137 -42 319 -54 458 -30 120 22 156 33 278 91 363 174 654 566 781
1055 65 247 89 558 65 805 -37 370 -161 722 -347 985 -78 110 -240 276 -334
342 -124 87 -275 153 -418 183 -89 18 -280 18 -372 0z m435 -35 c102 -27 280
-114 370 -181 652 -489 860 -1621 452 -2458 -152 -311 -378 -553 -634 -677
-50 -24 -98 -44 -105 -44 -8 0 -18 -4 -24 -9 -5 -4 -43 -17 -84 -27 -102 -26
-345 -27 -440 -1 -412 108 -725 417 -920 906 -186 468 -188 1115 -5 1581 152
387 375 659 673 822 94 52 217 94 316 108 99 14 310 4 401 -20z"/>
<path d="M2505 4810 c-180 -21 -364 -119 -511 -272 -103 -108 -159 -187 -228
-324 -231 -464 -234 -1055 -7 -1519 127 -260 299 -442 515 -544 113 -54 208
-75 336 -74 172 1 315 48 458 150 244 172 413 439 501 788 42 170 55 299 48
500 -11 332 -97 611 -265 861 -61 90 -179 215 -262 277 -112 84 -254 141 -388
157 -95 11 -107 11 -197 0z m275 -34 c225 -57 415 -198 564 -420 271 -404 339
-977 175 -1461 -136 -398 -373 -660 -699 -771 -79 -27 -338 -27 -425 -1 -330
102 -609 425 -720 833 -60 218 -81 421 -64 622 51 632 399 1119 863 1208 82
16 222 11 306 -10z"/>
<path d="M2302 3383 l3 -818 75 0 75 0 5 740 5 740 116 0 c107 0 119 -2 153
-25 52 -36 76 -91 76 -176 0 -83 -26 -143 -81 -187 -31 -24 -49 -29 -113 -34
l-77 -6 3 -66 3 -66 55 -2 c117 -6 140 -12 181 -54 85 -87 93 -251 15 -334
l-33 -35 -95 0 c-69 0 -99 -4 -107 -14 -8 -9 -11 -83 -9 -247 l3 -234 75 0 75
0 5 159 5 159 45 11 c92 24 158 86 197 186 12 33 17 75 17 160 0 98 -3 122
-22 164 -33 73 -68 115 -118 139 -24 11 -44 26 -44 31 0 6 21 23 45 38 67 40
97 108 103 225 8 160 -46 280 -152 336 -38 20 -56 22 -264 25 l-222 3 2 -818z"/>
</g>
</svg>
